<svg viewBox="0 0 102.941 102.948" width="102.941" height="102.948" xmlns="http://www.w3.org/2000/svg"><path xmlns="http://www.w3.org/2000/svg" d="M97.118 37.403 65.542 5.826C61.78 2.066 56.784 0 51.472 0S41.164 2.065 37.41 5.826L5.827 37.403C2.073 41.163 0 46.16 0 51.473s2.073 10.3 5.827 14.061l31.576 31.584c3.754 3.754 8.75 5.827 14.063 5.827s10.308-2.073 14.062-5.827L97.11 65.534a19.764 19.764 0 0 0 5.827-14.062 19.745 19.745 0 0 0-5.82-14.07zm-2.89 25.242L62.653 94.23a15.711 15.711 0 0 1-11.173 4.63 15.7 15.7 0 0 1-11.173-4.632l-24.308-24.31h20.904l6.96 12.06h15.235l7.618-13.192-7.618-13.19H43.861L36.895 67.64H13.72l-4.996-4.996A15.7 15.7 0 0 1 4.09 51.472 15.7 15.7 0 0 1 8.723 40.3L40.299 8.722c2.986-2.985 6.953-4.625 11.173-4.625s8.188 1.64 11.173 4.625l24.762 24.762H66.05L59.09 21.42H43.854l-7.617 13.19 7.617 13.19H59.09l6.96-12.058h23.629l4.55 4.55a15.7 15.7 0 0 1 4.632 11.173c0 4.228-1.647 8.195-4.632 11.18zm-53.27 6.136 5.257-9.108H56.73l5.258 9.108-5.258 9.107H46.215l-5.257-9.107zM61.987 34.61l-5.258 9.107H46.215l-5.257-9.107 5.257-9.108H56.73l5.258 9.108zm4.323 6.773-5.072 8.785H41.706l-5.071-8.785H24.988l-5.827 10.09 5.827 10.088h11.647l5.071-8.785h19.532l5.072 8.785h11.647l5.82-10.089-5.82-10.089H66.31z"/></svg>
